<svg width="269" height="82" viewBox="0 0 269 82" fill="none" xmlns="http://www.w3.org/2000/svg">
    <path d="M215.673 31.7276C217.407 28.7226 219.044 25.6175 219.911 22.2118C220.778 18.8062 220.874 15.1 219.526 11.9949C219.333 11.494 219.044 10.9932 218.563 10.7929C218.274 10.5926 217.888 10.5926 217.6 10.6927C216.251 10.893 215.095 11.8947 214.325 12.9965C213.073 14.7995 212.495 17.1033 212.302 19.307C212.109 21.5106 212.302 23.8145 212.398 26.0181C212.591 28.0214 212.687 30.0248 213.747 31.7276H215.673Z" fill="#7B8467"/>
    <path d="M218.948 32.9296C221.934 31.7276 224.92 30.3253 227.52 28.3219C230.121 26.3186 232.24 23.514 233.01 20.3087C233.107 19.8078 233.203 19.307 233.01 18.8062C232.818 18.5057 232.625 18.3053 232.336 18.105C231.18 17.4038 229.832 17.504 228.58 17.9047C226.557 18.5057 224.92 19.8078 223.475 21.4105C222.03 23.0131 220.874 24.8161 219.815 26.6191C218.852 28.2218 217.792 29.9246 217.599 31.7276L218.948 32.9296Z" fill="#7B8467"/>
    <path d="M163.373 28.1216C162.217 23.514 160.965 18.9064 158.653 14.6994C156.341 10.5926 153.067 6.88643 148.732 5.18361C148.058 4.88311 147.384 4.68278 146.71 4.98327C146.228 5.18361 145.939 5.4841 145.65 5.88477C144.494 7.38726 144.398 9.49074 144.687 11.3939C145.168 14.3989 146.613 17.2035 148.54 19.5073C150.37 21.9113 152.681 23.9147 154.897 25.918C156.823 27.721 158.942 29.524 161.446 30.125L163.373 28.1216Z" fill="#F5B5A6"/>
    <path d="M169.537 28.6224C171.271 24.3153 172.908 19.8078 173.39 15.1C173.968 10.3922 173.39 5.48409 170.982 1.47745C170.596 0.876454 170.211 0.275457 169.537 0.0751245C169.055 -0.0250415 168.574 -0.0250415 168.188 0.0751245C166.455 0.575955 165.106 2.17861 164.239 3.88143C162.891 6.58592 162.506 9.69106 162.602 12.696C162.698 15.701 163.373 18.706 163.95 21.711C164.528 24.3153 165.106 27.0198 166.744 29.1233L169.537 28.6224Z" fill="#F5B5A6"/>
    <path d="M179.843 55.6673C179.939 55.8676 180.036 56.0679 180.132 56.1681C183.503 59.9744 186.874 63.7807 190.245 67.587C194.387 72.0945 199.395 73.1963 205.174 71.6939C209.22 70.6922 212.591 68.2882 216.251 66.1847C216.733 65.8842 217.118 65.6839 217.792 65.2832C219.333 67.587 220.778 69.8909 222.223 72.1947C222.319 72.395 222.126 73.1963 221.837 73.3967C217.792 76.7021 213.361 79.3065 208.353 80.7088C204.308 81.8106 200.359 82.3114 196.217 81.41C189.956 80.0076 184.948 76.602 180.999 71.4935C179.265 69.1897 177.628 66.7857 175.798 64.5821C173.197 61.5771 169.826 60.3751 165.973 60.2749C164.914 60.2749 164.625 60.6756 164.625 61.7774C164.528 66.986 164.336 72.0945 164.239 77.3031C164.239 78.7055 163.758 79.1061 162.409 79.1061C160.387 79.006 158.364 79.006 156.341 79.1061C155.378 79.1061 154.993 78.8056 154.993 77.804C154.993 60.8759 154.993 43.9479 154.993 27.0198C154.993 26.2185 155.186 25.8178 155.956 25.8178C161.157 25.6175 166.358 25.317 171.56 26.4188C179.072 27.9213 184.851 34.1316 186.2 41.8444C187.259 47.5538 184.948 51.6606 180.806 54.9661C180.517 55.0663 180.228 55.3668 179.843 55.6673ZM164.239 43.3469C164.336 43.3469 164.336 43.3469 164.432 43.3469C164.432 45.9512 164.432 48.4553 164.432 51.0596C164.432 51.4603 165.01 52.1615 165.203 52.0613C167.611 51.5605 170.307 51.4603 172.523 50.3585C175.701 48.9562 176.857 45.851 176.761 42.3452C176.664 38.9396 175.22 36.3352 172.041 35.3336C170.018 34.6324 167.707 34.6324 165.588 34.3319C164.528 34.2318 164.239 34.7326 164.239 35.8344C164.239 38.2384 164.239 40.7425 164.239 43.3469Z" fill="#F5B5A6"/>
    <path d="M85.0662 24.0148C93.3495 24.0148 101.537 24.0148 109.82 24.0148C112.517 24.0148 112.228 23.6141 112.228 26.6191C112.228 28.5223 112.228 30.3253 112.131 32.2284C112.131 34.1316 112.131 34.1316 110.301 34.1316C101.344 34.1316 92.3863 34.2317 83.4288 34.2317C83.0435 34.2317 82.6582 34.2317 82.273 34.2317C79.0945 34.2317 79.4797 34.1316 79.3834 37.1366C79.0945 50.2583 78.9018 63.2799 78.6129 76.4016C78.6129 78.405 78.5165 78.405 76.5902 78.405C74.5675 78.405 72.6412 78.3048 70.6185 78.405C69.4627 78.405 69.1737 78.1045 69.1737 76.9025C69.3664 64.2816 69.4627 51.6606 69.559 39.0397C69.559 37.9379 69.559 36.8361 69.559 35.7342C69.6553 34.6324 69.1737 34.3319 68.2105 34.3319C65.1284 34.4321 62.1425 34.4321 59.0603 34.4321C57.3266 34.4321 57.2303 34.3319 57.2303 32.5289C57.2303 30.3253 57.2303 28.0214 57.2303 25.8178C57.2303 24.6158 57.6156 24.2151 58.7714 24.2151C67.44 24.2151 76.1086 24.2151 84.8735 24.2151C85.0662 24.115 85.0662 24.115 85.0662 24.0148Z" fill="#F5B5A6"/>
    <path d="M21.0148 22.312C22.7485 22.5123 24.4822 22.7126 26.2159 23.0131C26.5049 23.1133 26.9865 23.7143 26.9865 23.9146C26.6012 26.4188 26.1196 28.8228 25.638 31.3269C25.5417 31.7276 24.9638 32.2284 24.4822 32.2284C23.4227 32.3286 22.2669 32.0281 21.2074 32.1283C20.0516 32.2284 18.7032 32.4288 17.6437 32.9296C15.8136 33.8311 15.332 36.1349 16.5842 37.6374C17.8363 39.1399 19.4737 40.442 21.1111 41.5439C23.6154 43.2467 26.3123 44.649 28.8165 46.452C32.8619 49.2566 35.9441 53.063 37.0036 58.1714C38.1594 63.3801 37.0999 68.188 33.7287 72.395C27.1791 80.7088 13.7909 82.4116 5.60392 72.4952C3.48493 69.991 1.84753 67.1864 0.980672 63.9811C0.499083 62.2782 0.595396 62.0779 2.2328 61.5771C4.25547 60.9761 6.27815 60.3751 8.39714 59.8742C8.78242 59.7741 9.55296 60.2749 9.84191 60.6756C10.9977 62.2782 11.8646 64.1814 13.0204 65.6839C15.332 68.6889 19.1847 69.8909 22.2669 68.6889C27.1791 66.7857 28.7202 60.3751 24.9638 56.5688C23.2301 54.7658 21.0148 53.2633 18.8958 52.0613C14.8504 49.6573 11.383 46.8527 8.58978 42.846C3.09967 34.7326 7.14501 24.5156 16.5842 22.913C17.9326 22.7126 19.4737 22.5123 21.0148 22.312Z" fill="#7B8467"/>
    <path d="M134.959 79.006C128.024 78.9058 122.245 76.3015 118.97 69.6905C114.925 61.5771 116.081 51.5605 121.86 44.8493C123.979 42.3452 126.772 41.043 129.854 40.2417C134.477 39.0397 138.908 39.0397 143.146 41.644C149.118 45.3502 152.392 53.1631 150.948 60.1747C150.851 60.5754 150.177 61.0762 149.792 61.0762C147.865 61.2766 145.939 61.3767 144.013 61.3767C138.812 61.4769 133.61 61.4769 128.409 61.4769C126.772 61.4769 126.579 61.7774 126.868 63.4802C127.35 66.0845 128.794 67.7874 131.106 68.789C134.381 70.0912 137.752 70.0912 141.123 69.39C141.701 69.2899 142.375 69.1897 142.953 68.9894C144.976 68.4885 144.976 68.4885 145.554 70.4918C145.939 71.8942 146.324 73.2965 146.71 74.6988C147.095 76.3015 146.999 76.602 145.361 77.203C141.894 78.3048 138.523 79.1061 134.959 79.006ZM134.477 53.063C136.404 53.063 138.33 53.063 140.256 53.063C141.219 53.063 141.412 52.7625 141.027 51.7608C140.064 49.7575 138.715 48.4553 136.596 47.8543C133.418 46.9528 129.276 48.6557 128.024 51.3601C127.35 52.7625 127.542 52.9628 128.891 52.9628C130.817 53.063 132.647 53.063 134.477 53.063Z" fill="#D48F08"/>
    <path d="M230.795 43.447C230.891 34.2317 236.285 27.1199 245.05 24.5156C253.237 22.1116 261.713 25.7176 265.855 32.6291C270.96 41.3435 268.552 52.3618 260.268 58.1714C251.407 64.3817 239.56 61.9777 233.974 53.7641C231.855 50.659 230.699 47.2533 230.795 43.447ZM249.577 33.3302C244.569 33.3302 240.234 37.5372 240.234 42.5455C240.234 48.1548 244.376 52.2616 250.059 52.2616C254.971 52.2616 258.631 48.255 258.631 42.9462C258.535 37.5372 254.682 33.3302 249.577 33.3302Z" fill="#D48F08"/>
    <path d="M226.364 43.3468C226.364 53.6639 218.37 61.9777 208.738 62.0779C198.914 62.178 191.112 53.8643 191.208 44.4487C191.305 32.5289 199.877 25.5173 209.027 25.317C218.852 25.1166 226.364 33.2301 226.364 43.3468ZM217.214 44.1482C217.214 38.9395 213.362 34.5322 208.738 34.5322C204.115 34.5322 200.166 38.7392 200.07 43.6473C199.973 49.0563 203.922 53.1631 209.124 53.1631C213.554 53.1631 217.214 49.1565 217.214 44.1482Z" fill="#7B8467"/>
    <path d="M99.6102 42.7458C103.27 42.7458 106.93 42.7458 110.59 42.7458C111.746 42.7458 112.131 43.1465 112.131 44.3485C112.035 46.3518 112.131 48.255 112.131 50.2583C112.131 51.1598 111.746 51.5605 110.879 51.5605C109.435 51.5605 108.086 51.7608 106.641 51.861C104.811 52.0613 104.908 52.0613 104.811 53.9644C104.522 61.4769 104.233 68.9894 103.944 76.5018C103.848 78.405 103.848 78.405 102.018 78.405C100.092 78.405 98.2617 78.3048 96.3353 78.405C95.0832 78.5051 94.6979 78.0043 94.6979 76.7021C94.7943 69.1897 94.7943 61.6772 94.8906 54.1648C94.8906 52.1615 94.8906 52.1615 92.9642 52.1615C91.5195 52.1615 90.0747 52.0613 88.6299 52.1615C87.4741 52.2616 86.9925 51.861 86.9925 50.5588C87.0888 48.6556 87.0888 46.7525 86.9925 44.7492C86.8962 43.5472 87.3778 43.0463 88.6299 43.0463C92.29 43.0463 96.0464 43.0463 99.7065 43.0463C99.6101 42.9462 99.6102 42.846 99.6102 42.7458Z" fill="#7B8467"/>
    <path d="M41.9157 59.0729C41.9157 53.2633 41.9157 47.4537 41.9157 41.644C41.9157 40.3419 42.301 39.841 43.5532 39.841C46.2501 39.9412 49.0433 39.9412 51.7402 39.841C52.7034 39.841 53.1849 40.2417 53.1849 41.3435C53.1849 53.0629 53.0886 64.8825 53.0886 76.602C53.0886 77.804 52.607 78.3048 51.4512 78.3048C48.8506 78.2046 46.25 78.3048 43.6495 78.3048C42.59 78.3048 42.2047 77.9041 42.2047 76.8023C42.2047 70.8925 42.2047 64.9827 42.2047 59.0729C42.0121 59.0729 41.9157 59.0729 41.9157 59.0729Z" fill="#D48F08"/>
    <path d="M249.384 78.405C244.665 78.405 240.042 78.405 235.322 78.405C234.263 78.405 233.974 78.1045 233.974 77.0026C234.07 74.9993 234.07 73.0962 234.166 71.0928C234.166 70.0912 234.648 69.6905 235.611 69.6905C244.954 69.6905 254.2 69.6905 263.543 69.6905C264.603 69.6905 264.988 70.0912 265.084 71.0928C265.084 72.996 265.084 74.8991 265.181 76.9025C265.277 78.1045 264.892 78.5051 263.639 78.5051C258.92 78.405 254.2 78.405 249.384 78.405Z" fill="#D48F08"/>
    <path d="M47.0206 35.0331C49.9463 35.0331 52.3181 32.5665 52.3181 29.5239C52.3181 26.4813 49.9463 24.0148 47.0206 24.0148C44.0949 24.0148 41.7231 26.4813 41.7231 29.5239C41.7231 32.5665 44.0949 35.0331 47.0206 35.0331Z" fill="#D48F08"/>
</svg>
